<svg xmlns="http://www.w3.org/2000/svg" width="1200" height="900" viewBox="0 0 1200 900">
  <defs>
    <!-- Background -->
    <radialGradient id="bgRad" cx="50%" cy="35%" r="75%">
      <stop offset="0%" stop-color="#0b1b2b"/>
      <stop offset="55%" stop-color="#07131f"/>
      <stop offset="100%" stop-color="#050b13"/>
    </radialGradient>

    <!-- Grid -->
    <pattern id="grid" width="48" height="48" patternUnits="userSpaceOnUse">
      <path d="M48 0H0V48" fill="none" stroke="#0e2233" stroke-width="1" opacity="0.45"/>
      <path d="M24 0V48M0 24H48" fill="none" stroke="#0e2233" stroke-width="1" opacity="0.18"/>
    </pattern>

    <!-- Neon -->
    <linearGradient id="neon" x1="0" x2="1">
      <stop offset="0" stop-color="#00e5ff"/>
      <stop offset="1" stop-color="#00ffb3"/>
    </linearGradient>

    <filter id="glow" x="-40%" y="-60%" width="180%" height="220%">
      <feGaussianBlur stdDeviation="4" result="b"/>
      <feColorMatrix in="b" type="matrix"
        values="1 0 0 0 0
                0 1 0 0 0
                0 0 1 0 0
                0 0 0 0.85 0" result="g"/>
      <feMerge>
        <feMergeNode in="g"/>
        <feMergeNode in="SourceGraphic"/>
      </feMerge>
    </filter>

    <filter id="soft" x="-30%" y="-30%" width="160%" height="160%">
      <feGaussianBlur stdDeviation="1.25"/>
    </filter>

    <!-- Sweep -->
    <linearGradient id="sweep" x1="0" x2="1">
      <stop offset="0" stop-color="rgba(0,229,255,0)"/>
      <stop offset="0.5" stop-color="rgba(0,229,255,0.55)"/>
      <stop offset="1" stop-color="rgba(0,229,255,0)"/>
    </linearGradient>

    <!-- tiny packet dot -->
    <circle id="pkt" r="3.2" fill="#00e5ff" filter="url(#soft)"/>
  </defs>

  <!-- Panel -->
  <rect x="30" y="30" width="1140" height="840" rx="24" fill="url(#bgRad)"/>
  <rect x="30" y="30" width="1140" height="840" rx="24" fill="url(#grid)" opacity="0.65"/>
  <rect x="30" y="30" width="1140" height="840" rx="24" fill="none" stroke="url(#neon)" stroke-width="2.5" filter="url(#glow)"/>

  <!-- Title -->
  <g font-family="ui-monospace, SFMono-Regular, Menlo, Monaco, Consolas, monospace">
    <text x="70" y="110" font-size="34" fill="#00e5ff" filter="url(#glow)">VeilCore — SOC Live Control Plane</text>
    <text x="70" y="145" font-size="18" fill="#a9c0d7" opacity="0.92">
      Admission → Guardian (authorization oracle) → MSOS → Organs · explicit resource authority · audit-first
    </text>
  </g>

  <!-- TOP BUBBLES (centered & equal widths) -->
  <g transform="translate(0,0)" font-family="ui-monospace, SFMono-Regular, Menlo, Monaco, Consolas, monospace" font-size="18" text-anchor="middle">
    <!-- bubble helper -->
    <g filter="url(#glow)">
      <path d="M250,215 h260 l22,18 -22,18 h-260 l-22,-18 z" fill="#07131f" stroke="url(#neon)" stroke-width="2"/>
      <path d="M470,215 h260 l22,18 -22,18 h-260 l-22,-18 z" fill="#07131f" stroke="url(#neon)" stroke-width="2"/>
      <path d="M690,215 h260 l22,18 -22,18 h-260 l-22,-18 z" fill="#07131f" stroke="url(#neon)" stroke-width="2"/>
    </g>

    <text x="380" y="240" fill="#00e5ff">MODE: ENFORCE</text>
    <text x="600" y="240" fill="#00e5ff">NONCE: REPLAY SAFE</text>
    <text x="820" y="240" fill="#00e5ff">POLICY: VERIFIED</text>

    <!-- subtle pulsing glow -->
    <g opacity="0.28">
      <path d="M250,215 h260 l22,18 -22,18 h-260 l-22,-18 z" stroke="#00e5ff" stroke-width="3" fill="none">
        <animate attributeName="opacity" values="0.12;0.42;0.12" dur="2.2s" repeatCount="indefinite"/>
      </path>
      <path d="M470,215 h260 l22,18 -22,18 h-260 l-22,-18 z" stroke="#00e5ff" stroke-width="3" fill="none">
        <animate attributeName="opacity" values="0.10;0.36;0.10" dur="2.6s" repeatCount="indefinite"/>
      </path>
      <path d="M690,215 h260 l22,18 -22,18 h-260 l-22,-18 z" stroke="#00e5ff" stroke-width="3" fill="none">
        <animate attributeName="opacity" values="0.10;0.40;0.10" dur="2.4s" repeatCount="indefinite"/>
      </path>
    </g>
  </g>

  <!-- Node style -->
  <defs>
    <g id="node">
      <rect x="-180" y="-46" width="360" height="92" rx="18" fill="#0d1117" opacity="0.92"/>
      <rect x="-180" y="-46" width="360" height="92" rx="18" fill="none" stroke="url(#neon)" stroke-width="2.4" filter="url(#glow)"/>
    </g>
  </defs>

  <!-- CLIENT -->
  <g transform="translate(600,320)">
    <use href="#node"/>
    <text x="0" y="6" text-anchor="middle" font-family="ui-monospace, SFMono-Regular, Menlo, Monaco, Consolas, monospace" font-size="24" fill="#d7e6ff">Client / Operator</text>
    <circle cx="155" cy="-2" r="6" fill="#00ff6a">
      <animate attributeName="opacity" values="0.2;1;0.2" dur="1.2s" repeatCount="indefinite"/>
    </circle>
  </g>

  <!-- API -->
  <g transform="translate(600,455)">
    <use href="#node"/>
    <text x="0" y="0" text-anchor="middle" font-family="ui-monospace, SFMono-Regular, Menlo, Monaco, Consolas, monospace" font-size="24" fill="#d7e6ff">VeilCore API</text>
    <text x="0" y="28" text-anchor="middle" font-family="ui-monospace, SFMono-Regular, Menlo, Monaco, Consolas, monospace" font-size="16" fill="#9fb3ff" opacity="0.9">
      validate · normalize · audit · forward
    </text>

    <!-- Live LEDs -->
    <circle cx="145" cy="-10" r="6" fill="#00ff6a">
      <animate attributeName="opacity" values="0.25;1;0.25" dur="1.1s" repeatCount="indefinite"/>
    </circle>
    <circle cx="168" cy="-10" r="6" fill="#00e5ff">
      <animate attributeName="opacity" values="0.2;0.9;0.2" dur="1.6s" repeatCount="indefinite"/>
    </circle>
  </g>

  <!-- CONNECTOR LINES -->
  <g stroke-linecap="round">
    <!-- client -> api -->
    <path d="M600,366 L600,409" stroke="#123047" stroke-width="3"/>
    <path d="M600,366 L600,409" stroke="#00e5ff" stroke-width="3" opacity="0.25">
      <animate attributeName="opacity" values="0.1;0.45;0.1" dur="1.7s" repeatCount="indefinite"/>
    </path>

    <!-- api -> admission / guardian / msos -->
    <path id="p_adm" d="M600,501 C520,520 430,535 330,548" fill="none" stroke="#123047" stroke-width="3"/>
    <path id="p_grd" d="M600,501 C600,520 600,535 600,548" fill="none" stroke="#123047" stroke-width="3"/>
    <path id="p_msos" d="M600,501 C680,520 770,535 870,548" fill="none" stroke="#123047" stroke-width="3"/>

    <!-- pulsing data glow -->
    <path d="M600,501 C520,520 430,535 330,548" fill="none" stroke="#00e5ff" stroke-width="3" opacity="0.18">
      <animate attributeName="opacity" values="0.08;0.32;0.08" dur="2.0s" repeatCount="indefinite"/>
    </path>
    <path d="M600,501 C600,520 600,535 600,548" fill="none" stroke="#00ff6a" stroke-width="3" opacity="0.16">
      <animate attributeName="opacity" values="0.06;0.30;0.06" dur="2.2s" repeatCount="indefinite"/>
    </path>
    <path d="M600,501 C680,520 770,535 870,548" fill="none" stroke="#a78bfa" stroke-width="3" opacity="0.14">
      <animate attributeName="opacity" values="0.06;0.26;0.06" dur="2.4s" repeatCount="indefinite"/>
    </path>

    <!-- moving packet dots -->
    <use href="#pkt">
      <animateMotion dur="1.4s" repeatCount="indefinite" path="M600,501 C520,520 430,535 330,548"/>
    </use>
    <use href="#pkt" fill="#00ff6a">
      <animateMotion dur="1.6s" repeatCount="indefinite" path="M600,501 C600,520 600,535 600,548"/>
    </use>
    <use href="#pkt" fill="#a78bfa">
      <animateMotion dur="1.8s" repeatCount="indefinite" path="M600,501 C680,520 770,535 870,548"/>
    </use>
  </g>

  <!-- ADM / GRD / MSOS nodes row -->
  <g font-family="ui-monospace, SFMono-Regular, Menlo, Monaco, Consolas, monospace">
    <!-- Admission -->
    <g transform="translate(330,600)">
      <use href="#node"/>
      <text x="0" y="-2" text-anchor="middle" font-size="24" fill="#d7e6ff">Admission</text>
      <text x="0" y="28" text-anchor="middle" font-size="16" fill="#9fb3ff" opacity="0.9">structure · integrity</text>
      <circle cx="150" cy="-10" r="6" fill="#00e5ff">
        <animate attributeName="opacity" values="0.15;1;0.15" dur="1.3s" repeatCount="indefinite"/>
      </circle>
    </g>

    <!-- Guardian -->
    <g transform="translate(600,600)">
      <use href="#node"/>
      <text x="0" y="-2" text-anchor="middle" font-size="24" fill="#d7e6ff">Guardian</text>
      <text x="0" y="28" text-anchor="middle" font-size="16" fill="#9fb3ff" opacity="0.9">decide: allow | deny</text>

      <!-- Guardian live LEDs -->
      <circle cx="130" cy="-10" r="6" fill="#00ff6a">
        <animate attributeName="opacity" values="0.2;1;0.2" dur="1.0s" repeatCount="indefinite"/>
      </circle>
      <circle cx="154" cy="-10" r="6" fill="#00ff6a">
        <animate attributeName="opacity" values="0.1;0.9;0.1" dur="1.6s" repeatCount="indefinite"/>
      </circle>

      <!-- ALLOW / DENY loop -->
      <g transform="translate(0,72)" font-size="18" text-anchor="middle">
        <text x="-70" y="0" fill="#00ff6a" opacity="0">
          ALLOW
          <animate attributeName="opacity" values="0;1;0" dur="2.4s" repeatCount="indefinite"/>
        </text>
        <text x="70" y="0" fill="#ff4d6d" opacity="0">
          DENY
          <animate attributeName="opacity" values="0;0;1;0" keyTimes="0;0.5;0.75;1" dur="2.4s" repeatCount="indefinite"/>
        </text>
      </g>
    </g>

    <!-- MSOS -->
    <g transform="translate(870,600)">
      <use href="#node"/>
      <text x="0" y="-2" text-anchor="middle" font-size="24" fill="#d7e6ff">MSOS</text>
      <text x="0" y="28" text-anchor="middle" font-size="16" fill="#9fb3ff" opacity="0.9">invoke organs safely</text>

      <!-- MSOS status LEDs (green + red like your screenshot) -->
      <circle cx="140" cy="-10" r="6" fill="#ff4d6d">
        <animate attributeName="opacity" values="0.15;0.5;0.15" dur="2.2s" repeatCount="indefinite"/>
      </circle>
    </g>
  </g>

  <!-- Organs bar -->
  <g transform="translate(600,760)" font-family="ui-monospace, SFMono-Regular, Menlo, Monaco, Consolas, monospace">
    <rect x="-430" y="-58" width="860" height="116" rx="18" fill="#0d1117" opacity="0.92"/>
    <rect x="-430" y="-58" width="860" height="116" rx="18" fill="none" stroke="url(#neon)" stroke-width="2.4" filter="url(#glow)"/>

    <text x="-360" y="-6" font-size="26" fill="#d7e6ff">Organs</text>
    <text x="-230" y="-6" font-size="18" fill="#9fb3ff" opacity="0.92">firewall · sentinel · cortex · audit · …</text>
    <text x="-230" y="28" font-size="16" fill="#9fb3ff" opacity="0.92">execution only after authorization</text>

    <!-- Organs LEDs -->
    <circle cx="360" cy="-22" r="7" fill="#00ff6a">
      <animate attributeName="opacity" values="0.25;1;0.25" dur="1.1s" repeatCount="indefinite"/>
    </circle>
    <circle cx="384" cy="-22" r="7" fill="#fbbf24">
      <animate attributeName="opacity" values="0.18;0.7;0.18" dur="1.7s" repeatCount="indefinite"/>
    </circle>
    <circle cx="408" cy="-22" r="7" fill="#ff4d6d">
      <animate attributeName="opacity" values="0.10;0.35;0.10" dur="2.3s" repeatCount="indefinite"/>
    </circle>

    <!-- AUDIT TRACE SWEEP -->
    <rect x="-400" y="54" width="800" height="8" rx="4" fill="url(#sweep)" opacity="0.55">
      <animate attributeName="x" values="-1200;-400;800" dur="2.2s" repeatCount="indefinite"/>
    </rect>
    <text x="-400" y="46" font-size="12" fill="#9fb3ff" opacity="0.9">audit trace</text>
  </g>

  <!-- links down to Organs -->
  <g stroke-linecap="round">
    <path d="M330,646 C390,700 450,720 520,735" fill="none" stroke="#123047" stroke-width="3"/>
    <path d="M600,646 C600,700 600,720 600,735" fill="none" stroke="#123047" stroke-width="3"/>
    <path d="M870,646 C810,700 750,720 680,735" fill="none" stroke="#123047" stroke-width="3"/>

    <!-- moving packet dots to Organs -->
    <use href="#pkt">
      <animateMotion dur="1.7s" repeatCount="indefinite" path="M330,646 C390,700 450,720 520,735"/>
    </use>
    <use href="#pkt" fill="#00ff6a">
      <animateMotion dur="1.9s" repeatCount="indefinite" path="M600,646 C600,700 600,720 600,735"/>
    </use>
    <use href="#pkt" fill="#a78bfa">
      <animateMotion dur="2.1s" repeatCount="indefinite" path="M870,646 C810,700 750,720 680,735"/>
    </use>
  </g>

  <!-- SOC Legend -->
  <g transform="translate(90,790)" font-family="ui-monospace, SFMono-Regular, Menlo, Monaco, Consolas, monospace">
    <rect x="0" y="0" width="260" height="110" rx="16" fill="#0d1117" opacity="0.92"/>
    <rect x="0" y="0" width="260" height="110" rx="16" fill="none" stroke="url(#neon)" stroke-width="2.2" filter="url(#glow)"/>
    <text x="18" y="32" font-size="18" fill="#00e5ff">SOC Legend</text>

    <circle cx="26" cy="58" r="7" fill="#00ff6a"/>
    <text x="44" y="63" font-size="16" fill="#9fb3ff">healthy</text>

    <circle cx="126" cy="58" r="7" fill="#fbbf24"/>
    <text x="144" y="63" font-size="16" fill="#9fb3ff">degraded</text>

    <circle cx="26" cy="86" r="7" fill="#ff4d6d"/>
    <text x="44" y="91" font-size="16" fill="#9fb3ff">blocked</text>
  </g>
</svg>
