<svg width="1600" height="900" viewBox="0 0 1600 900" fill="none" xmlns="http://www.w3.org/2000/svg">
  <defs>
    <linearGradient id="bg" x1="0" y1="0" x2="1600" y2="900" gradientUnits="userSpaceOnUse">
      <stop stop-color="#08111f"/>
      <stop offset="1" stop-color="#0f1b2e"/>
    </linearGradient>
    <linearGradient id="cyanLine" x1="0" y1="0" x2="1" y2="1">
      <stop stop-color="#00e5ff"/>
      <stop offset="1" stop-color="#3b82f6"/>
    </linearGradient>
    <linearGradient id="goldLine" x1="0" y1="0" x2="1" y2="1">
      <stop stop-color="#fbbf24"/>
      <stop offset="1" stop-color="#ff8c00"/>
    </linearGradient>
    <filter id="glowCyan" x="-40%" y="-40%" width="180%" height="180%">
      <feGaussianBlur stdDeviation="8" result="blur"/>
      <feMerge>
        <feMergeNode in="blur"/>
        <feMergeNode in="SourceGraphic"/>
      </feMerge>
    </filter>
    <style>
      .title { font: 700 44px 'Segoe UI', Arial, sans-serif; fill: #e6f7ff; letter-spacing: 2px; }
      .subtitle { font: 500 20px 'Segoe UI', Arial, sans-serif; fill: #7baac4; }
      .label { font: 700 22px 'Segoe UI', Arial, sans-serif; fill: #e6f7ff; letter-spacing: 1px; }
      .body { font: 500 16px 'Segoe UI', Arial, sans-serif; fill: #9fc7dd; }
      .small { font: 600 14px 'Segoe UI', Arial, sans-serif; fill: #7baac4; letter-spacing: 1px; }
      .box { fill: #111827; stroke: #1e3a4a; stroke-width: 2; rx: 22; }
      .box2 { fill: #0c1524; stroke: #1e3a4a; stroke-width: 2; rx: 22; }
      .cyan { stroke: #00e5ff; }
      .gold { stroke: #fbbf24; }
    </style>
  </defs>

  <rect width="1600" height="900" fill="url(#bg)"/>

  <text x="800" y="72" text-anchor="middle" class="title">VEILCORE ARCHITECTURE</text>
  <text x="800" y="105" text-anchor="middle" class="subtitle">The Veil Protects the Core · Beta Foundation Runtime</text>

  <!-- left rail -->
  <rect x="90" y="180" width="250" height="120" rx="22" class="box"/>
  <text x="215" y="220" text-anchor="middle" class="label">OPERATOR</text>
  <text x="215" y="250" text-anchor="middle" class="body">Desktop UI</text>
  <text x="215" y="275" text-anchor="middle" class="body">Prism Events</text>

  <rect x="90" y="360" width="250" height="120" rx="22" class="box"/>
  <text x="215" y="400" text-anchor="middle" class="label">TERMINAL</text>
  <text x="215" y="430" text-anchor="middle" class="body">In-platform shell</text>
  <text x="215" y="455" text-anchor="middle" class="body">Git / Ops workflow</text>

  <rect x="90" y="540" width="250" height="120" rx="22" class="box"/>
  <text x="215" y="580" text-anchor="middle" class="label">API</text>
  <text x="215" y="610" text-anchor="middle" class="body">veilcore/veil/api.py</text>
  <text x="215" y="635" text-anchor="middle" class="body">/events · /engines</text>

  <!-- center veil -->
  <rect x="470" y="140" width="660" height="570" rx="32" class="box2"/>
  <text x="800" y="190" text-anchor="middle" class="label">THE VEIL</text>
  <text x="800" y="218" text-anchor="middle" class="body">interception · challenge · containment · deception · visibility</text>

  <rect x="520" y="260" width="220" height="130" rx="22" class="box"/>
  <text x="630" y="302" text-anchor="middle" class="label">EVENT FABRIC</text>
  <text x="630" y="332" text-anchor="middle" class="body">engine.degraded</text>
  <text x="630" y="356" text-anchor="middle" class="body">physical alerts</text>

  <rect x="820" y="260" width="260" height="130" rx="22" class="box"/>
  <text x="950" y="302" text-anchor="middle" class="label">ORGANS</text>
  <text x="950" y="332" text-anchor="middle" class="body">guardian · sentinel ·</text>
  <text x="950" y="356" text-anchor="middle" class="body">quarantine · vault</text>

  <rect x="520" y="450" width="220" height="130" rx="22" class="box"/>
  <text x="630" y="492" text-anchor="middle" class="label">ENGINES</text>
  <text x="630" y="522" text-anchor="middle" class="body">ml · physical ·</text>
  <text x="630" y="546" text-anchor="middle" class="body">pentest · wireless</text>

  <rect x="820" y="450" width="260" height="130" rx="22" class="box"/>
  <text x="950" y="492" text-anchor="middle" class="label">CONTAINMENT</text>
  <text x="950" y="522" text-anchor="middle" class="body">response chains</text>
  <text x="950" y="546" text-anchor="middle" class="body">operator awareness</text>

  <!-- core -->
  <rect x="1230" y="285" width="270" height="280" rx="28" fill="#0f1726" stroke="#fbbf24" stroke-width="3"/>
  <text x="1365" y="338" text-anchor="middle" class="label">THE CORE</text>
  <text x="1365" y="375" text-anchor="middle" class="body">policy truth</text>
  <text x="1365" y="405" text-anchor="middle" class="body">identity trust</text>
  <text x="1365" y="435" text-anchor="middle" class="body">continuity</text>
  <text x="1365" y="465" text-anchor="middle" class="body">accountability</text>
  <text x="1365" y="495" text-anchor="middle" class="body">protected state</text>

  <!-- connectors -->
  <path d="M340 240 C410 240, 430 260, 470 300" stroke="url(#cyanLine)" stroke-width="6" fill="none" filter="url(#glowCyan)"/>
  <path d="M340 420 C430 420, 450 380, 520 350" stroke="url(#cyanLine)" stroke-width="5" fill="none" filter="url(#glowCyan)"/>
  <path d="M340 600 C430 600, 455 560, 520 520" stroke="url(#cyanLine)" stroke-width="5" fill="none" filter="url(#glowCyan)"/>

  <path d="M740 325 C785 325, 780 325, 820 325" stroke="url(#cyanLine)" stroke-width="5" fill="none"/>
  <path d="M740 515 C780 515, 785 515, 820 515" stroke="url(#cyanLine)" stroke-width="5" fill="none"/>
  <path d="M1080 325 C1160 325, 1180 350, 1230 375" stroke="url(#goldLine)" stroke-width="6" fill="none"/>
  <path d="M1080 515 C1160 515, 1180 490, 1230 465" stroke="url(#goldLine)" stroke-width="6" fill="none"/>

  <text x="800" y="780" text-anchor="middle" class="small">Canonical API: veilcore/veil/api.py · Canonical Desktop: scripts/veilcore_desktop.py · Branch: beta-foundation</text>
</svg>
