<svg width="1600" height="900" viewBox="0 0 1600 900" xmlns="http://www.w3.org/2000/svg">
  <defs>
    <linearGradient id="bg" x1="0" y1="0" x2="1600" y2="900" gradientUnits="userSpaceOnUse">
      <stop offset="0%" stop-color="#07101d"/>
      <stop offset="100%" stop-color="#0f1b2e"/>
    </linearGradient>
    <linearGradient id="cyan" x1="0" y1="0" x2="1" y2="1">
      <stop offset="0%" stop-color="#00e5ff"/>
      <stop offset="100%" stop-color="#3b82f6"/>
    </linearGradient>
    <linearGradient id="gold" x1="0" y1="0" x2="1" y2="1">
      <stop offset="0%" stop-color="#fbbf24"/>
      <stop offset="100%" stop-color="#ff8c00"/>
    </linearGradient>
    <filter id="glow" x="-40%" y="-40%" width="180%" height="180%">
      <feGaussianBlur stdDeviation="6" result="blur"/>
      <feMerge>
        <feMergeNode in="blur"/>
        <feMergeNode in="SourceGraphic"/>
      </feMerge>
    </filter>
    <style>
      .title { font: 700 44px 'Segoe UI', Arial, sans-serif; fill: #e6f7ff; letter-spacing: 2px; }
      .sub { font: 600 20px 'Segoe UI', Arial, sans-serif; fill: #9fc7dd; letter-spacing: 1px; }
      .label { font: 700 22px 'Segoe UI', Arial, sans-serif; fill: #e6f7ff; letter-spacing: 1px; }
      .body { font: 500 16px 'Segoe UI', Arial, sans-serif; fill: #9fc7dd; }
      .tiny { font: 600 14px 'Segoe UI', Arial, sans-serif; fill: #7baac4; letter-spacing: 1px; }
    </style>
  </defs>

  <rect width="1600" height="900" fill="url(#bg)"/>

  <text x="800" y="68" text-anchor="middle" class="title">VEILCORE SYSTEM ARCHITECTURE</text>
  <text x="800" y="102" text-anchor="middle" class="sub">beta-foundation · event-driven defense · the veil protects the core</text>

  <!-- left operator rail -->
  <rect x="80" y="170" width="280" height="120" rx="22" fill="#111827" stroke="#1e3a4a" stroke-width="2"/>
  <text x="220" y="212" text-anchor="middle" class="label">OPERATOR</text>
  <text x="220" y="242" text-anchor="middle" class="body">Desktop UI</text>
  <text x="220" y="266" text-anchor="middle" class="body">Prism Events</text>

  <rect x="80" y="350" width="280" height="120" rx="22" fill="#111827" stroke="#1e3a4a" stroke-width="2"/>
  <text x="220" y="392" text-anchor="middle" class="label">TERMINAL</text>
  <text x="220" y="422" text-anchor="middle" class="body">In-platform shell</text>
  <text x="220" y="446" text-anchor="middle" class="body">Git / Ops workflow</text>

  <rect x="80" y="530" width="280" height="120" rx="22" fill="#111827" stroke="#1e3a4a" stroke-width="2"/>
  <text x="220" y="572" text-anchor="middle" class="label">API</text>
  <text x="220" y="602" text-anchor="middle" class="body">veilcore/veil/api.py</text>
  <text x="220" y="626" text-anchor="middle" class="body">/events · /engines</text>

  <!-- veil -->
  <rect x="450" y="130" width="720" height="610" rx="32" fill="#0d1625" stroke="#00e5ff" stroke-opacity="0.4" stroke-width="3"/>
  <text x="810" y="185" text-anchor="middle" class="label">THE VEIL</text>
  <text x="810" y="215" text-anchor="middle" class="body">interception · challenge · containment · deception · visibility</text>

  <!-- veil internals -->
  <rect x="520" y="280" width="250" height="130" rx="22" fill="#111827" stroke="#1e3a4a" stroke-width="2"/>
  <text x="645" y="322" text-anchor="middle" class="label">EVENT FABRIC</text>
  <text x="645" y="352" text-anchor="middle" class="body">engine.degraded</text>
  <text x="645" y="376" text-anchor="middle" class="body">physical alerts</text>

  <rect x="850" y="280" width="250" height="130" rx="22" fill="#111827" stroke="#1e3a4a" stroke-width="2"/>
  <text x="975" y="322" text-anchor="middle" class="label">ORGANS</text>
  <text x="975" y="352" text-anchor="middle" class="body">guardian · sentinel</text>
  <text x="975" y="376" text-anchor="middle" class="body">quarantine · vault</text>

  <rect x="520" y="490" width="250" height="130" rx="22" fill="#111827" stroke="#1e3a4a" stroke-width="2"/>
  <text x="645" y="532" text-anchor="middle" class="label">ENGINES</text>
  <text x="645" y="562" text-anchor="middle" class="body">ml · physical</text>
  <text x="645" y="586" text-anchor="middle" class="body">pentest · wireless</text>

  <rect x="850" y="490" width="250" height="130" rx="22" fill="#111827" stroke="#1e3a4a" stroke-width="2"/>
  <text x="975" y="532" text-anchor="middle" class="label">CONTAINMENT</text>
  <text x="975" y="562" text-anchor="middle" class="body">response chains</text>
  <text x="975" y="586" text-anchor="middle" class="body">operator awareness</text>

  <!-- core -->
  <rect x="1260" y="300" width="260" height="260" rx="28" fill="#10161f" stroke="#fbbf24" stroke-width="3"/>
  <text x="1390" y="352" text-anchor="middle" class="label">THE CORE</text>
  <text x="1390" y="388" text-anchor="middle" class="body">policy truth</text>
  <text x="1390" y="418" text-anchor="middle" class="body">identity trust</text>
  <text x="1390" y="448" text-anchor="middle" class="body">continuity</text>
  <text x="1390" y="478" text-anchor="middle" class="body">accountability</text>
  <text x="1390" y="508" text-anchor="middle" class="body">protected state</text>

  <!-- connectors -->
  <path d="M360 230 C420 230, 445 255, 520 315" stroke="url(#cyan)" stroke-width="6" fill="none" filter="url(#glow)"/>
  <path d="M360 410 C445 410, 470 385, 520 360" stroke="url(#cyan)" stroke-width="5" fill="none" filter="url(#glow)"/>
  <path d="M360 590 C450 590, 470 560, 520 555" stroke="url(#cyan)" stroke-width="5" fill="none" filter="url(#glow)"/>

  <path d="M770 345 C805 345, 820 345, 850 345" stroke="url(#cyan)" stroke-width="5" fill="none"/>
  <path d="M770 555 C805 555, 820 555, 850 555" stroke="url(#cyan)" stroke-width="5" fill="none"/>

  <path d="M1100 345 C1180 345, 1210 370, 1260 395" stroke="url(#gold)" stroke-width="6" fill="none"/>
  <path d="M1100 555 C1180 555, 1210 520, 1260 470" stroke="url(#gold)" stroke-width="6" fill="none"/>

  <text x="800" y="810" text-anchor="middle" class="tiny">canonical api: veilcore/veil/api.py · canonical desktop: scripts/veilcore_desktop.py · branch: beta-foundation</text>
</svg>
